<?xml version="1.0" encoding="UTF-8" ?>
<!DOCTYPE svg PUBLIC "-//W3C//DTD SVG 1.1//EN" "http://www.w3.org/Graphics/SVG/1.1/DTD/svg11.dtd">
<svg width="1280pt" height="1033pt" viewBox="0 0 1280 1033" version="1.1" xmlns="http://www.w3.org/2000/svg">
<g id="#ffffffff">
</g>
<g id="#040404ff">
<path fill="#040404" opacity="1.00" d=" M 102.29 10.00 C 105.64 9.82 109.00 9.79 112.36 9.81 C 112.61 21.57 112.40 33.33 112.45 45.09 C 117.24 41.44 122.54 37.14 129.01 38.05 C 134.39 38.05 138.76 42.76 138.94 48.03 C 139.43 56.58 138.91 65.16 139.17 73.73 C 141.40 73.88 143.63 74.06 145.87 74.22 C 145.89 74.96 145.92 76.43 145.93 77.17 C 140.33 77.37 134.73 77.40 129.13 77.16 C 129.14 76.43 129.17 74.99 129.19 74.27 C 131.37 74.07 133.56 73.86 135.75 73.68 C 135.68 65.77 135.90 57.86 135.67 49.96 C 135.73 46.73 134.11 43.35 130.97 42.12 C 125.77 40.03 119.96 42.49 115.94 45.92 C 114.43 47.32 112.41 48.80 112.50 51.09 C 112.29 58.60 112.61 66.13 112.40 73.65 C 114.65 73.82 116.90 74.02 119.15 74.22 C 119.19 74.96 119.26 76.44 119.29 77.18 C 113.69 77.38 108.09 77.36 102.49 77.21 C 102.53 76.44 102.61 74.91 102.65 74.14 C 104.75 74.01 106.84 73.87 108.94 73.75 C 108.98 53.47 109.11 33.18 108.88 12.89 C 106.68 12.79 104.49 12.69 102.30 12.59 C 102.29 11.94 102.29 10.65 102.29 10.00 Z" />
<path fill="#040404" opacity="1.00" d=" M 671.27 978.90 C 674.26 975.61 677.41 971.71 682.08 970.98 C 683.93 970.85 686.66 970.95 687.15 973.22 C 687.28 974.47 687.83 976.66 686.33 977.26 C 683.97 978.80 681.75 976.19 679.78 975.17 C 676.46 977.54 672.70 980.16 671.43 984.23 C 670.96 991.67 671.39 999.15 671.27 1006.62 C 673.88 1006.67 676.50 1006.72 679.13 1006.81 C 679.15 1007.58 679.18 1009.12 679.19 1009.89 C 673.15 1010.00 667.10 1010.02 661.06 1009.86 C 661.09 1009.11 661.15 1007.62 661.18 1006.87 C 663.41 1006.76 665.64 1006.67 667.88 1006.59 C 667.90 996.14 667.94 985.68 667.87 975.22 C 665.62 975.05 663.38 974.87 661.14 974.73 C 661.12 974.04 661.07 972.66 661.05 971.98 C 664.42 971.89 667.80 971.87 671.17 971.87 C 671.20 974.20 671.24 976.55 671.27 978.90 Z" />
<path fill="#040404" opacity="1.00" d=" M 783.69 974.64 C 788.04 970.90 794.26 970.45 799.71 971.31 C 804.51 972.08 809.31 975.72 809.40 980.95 C 809.68 989.47 809.42 998.01 809.44 1006.54 C 811.57 1006.64 813.69 1006.74 815.83 1006.86 C 815.89 1007.63 816.00 1009.16 816.05 1009.92 C 812.77 1009.92 809.49 1009.94 806.22 1009.93 C 806.07 1008.35 805.95 1006.79 805.84 1005.23 C 799.79 1010.71 789.91 1013.38 783.00 1007.95 C 779.40 1005.21 779.08 1000.14 779.90 996.05 C 780.81 991.96 784.69 989.42 788.51 988.42 C 794.31 986.90 800.34 988.24 805.98 989.78 C 805.98 984.99 806.87 978.82 802.25 975.74 C 797.79 973.27 792.38 974.22 787.69 975.48 C 787.37 977.66 787.04 979.84 786.67 982.02 C 785.26 981.84 783.85 981.69 782.48 981.43 C 780.81 979.30 781.73 976.22 783.69 974.64 M 786.64 992.66 C 781.53 995.62 781.83 1004.26 787.31 1006.65 C 793.80 1009.41 801.96 1006.51 805.82 1000.74 C 806.34 998.00 805.92 995.19 805.81 992.44 C 799.58 991.20 792.46 988.97 786.64 992.66 Z" />
<path fill="#040404" opacity="1.00" d=" M 1012.37 978.07 C 1016.84 974.44 1021.90 970.47 1028.02 970.94 C 1033.32 970.65 1038.49 974.68 1038.77 980.13 C 1039.43 988.93 1038.73 997.78 1039.09 1006.60 C 1041.31 1006.67 1043.54 1006.76 1045.78 1006.88 C 1045.81 1007.62 1045.89 1009.10 1045.93 1009.84 C 1040.20 1009.99 1034.47 1010.02 1028.75 1009.88 C 1028.77 1009.12 1028.80 1007.62 1028.81 1006.87 C 1031.06 1006.75 1033.33 1006.65 1035.60 1006.57 C 1035.44 998.74 1035.72 990.91 1035.47 983.08 C 1035.43 979.92 1034.38 976.14 1031.07 974.98 C 1024.05 972.47 1016.58 976.80 1012.55 982.46 C 1011.80 990.46 1012.47 998.55 1012.27 1006.59 C 1014.55 1006.67 1016.84 1006.76 1019.15 1006.88 C 1019.17 1007.62 1019.22 1009.12 1019.24 1009.86 C 1013.50 1010.01 1007.76 1010.03 1002.04 1009.87 C 1002.07 1009.12 1002.15 1007.61 1002.18 1006.86 C 1004.40 1006.76 1006.63 1006.67 1008.87 1006.60 C 1008.92 996.14 1008.96 985.69 1008.85 975.23 C 1006.60 975.05 1004.36 974.87 1002.12 974.72 C 1002.11 974.04 1002.08 972.66 1002.06 971.98 C 1005.41 971.89 1008.77 971.87 1012.13 971.90 C 1012.20 973.95 1012.28 976.01 1012.37 978.07 Z" />
</g>
<g id="#020202ff">
<path fill="#020202" opacity="1.00" d=" M 41.66 15.81 C 57.96 15.79 74.28 15.48 90.58 15.97 C 90.54 20.60 90.53 25.22 90.59 29.85 C 89.38 29.97 88.17 30.09 86.96 30.21 C 86.89 26.60 86.86 23.00 86.79 19.39 C 80.62 19.47 74.44 19.46 68.27 19.40 C 68.18 37.50 68.23 55.60 68.24 73.69 C 71.19 73.72 74.14 73.76 77.08 73.79 C 77.08 74.65 77.08 76.38 77.09 77.24 C 69.79 77.34 62.49 77.39 55.19 77.17 C 55.19 76.34 55.19 74.69 55.19 73.86 C 58.33 73.79 61.47 73.71 64.62 73.64 C 64.52 55.57 64.58 37.50 64.58 19.43 C 58.15 19.45 51.71 19.47 45.28 19.40 C 45.20 22.98 45.17 26.56 45.17 30.13 C 44.29 30.13 42.52 30.11 41.64 30.11 C 41.49 25.34 41.48 20.57 41.66 15.81 Z" />
<path fill="#020202" opacity="1.00" d=" M 828.00 948.05 C 830.45 947.57 834.17 946.92 834.92 950.22 C 836.66 957.29 831.83 965.51 824.73 967.34 C 827.02 963.72 829.82 960.39 831.31 956.32 C 829.97 954.92 828.40 953.69 827.49 951.97 C 827.58 950.64 827.75 949.34 828.00 948.05 Z" />
<path fill="#020202" opacity="1.00" d=" M 617.89 974.85 C 622.56 970.68 629.45 970.29 635.31 971.59 C 639.73 972.52 643.60 976.39 643.68 981.06 C 643.98 989.57 643.49 998.09 643.90 1006.60 C 646.01 1006.66 648.13 1006.72 650.25 1006.81 C 650.27 1007.60 650.30 1009.17 650.32 1009.96 C 647.04 1009.93 643.77 1009.93 640.50 1009.89 C 640.33 1008.52 640.17 1007.17 640.01 1005.83 C 636.48 1007.86 632.96 1010.29 628.81 1010.77 C 624.78 1011.23 620.32 1010.59 617.23 1007.77 C 612.05 1003.12 612.81 993.44 619.02 990.01 C 625.54 986.23 633.37 988.11 640.29 989.53 C 640.19 985.69 641.01 981.44 638.97 977.98 C 635.74 973.59 629.46 973.82 624.66 974.75 C 621.20 975.09 621.93 979.26 621.24 981.72 C 619.63 981.63 618.02 981.61 616.42 981.66 C 616.44 979.36 615.77 976.48 617.89 974.85 M 623.40 991.45 C 617.49 992.90 614.98 1001.19 619.73 1005.29 C 626.03 1010.27 635.86 1007.07 640.10 1000.85 C 640.37 998.17 641.09 994.87 639.59 992.55 C 634.45 990.85 628.68 989.80 623.40 991.45 Z" />
<path fill="#020202" opacity="1.00" d=" M 1152.39 975.34 C 1157.02 970.68 1164.36 970.22 1170.45 971.62 C 1174.82 972.59 1178.58 976.44 1178.67 981.05 C 1178.96 989.56 1178.47 998.09 1178.89 1006.60 C 1181.00 1006.66 1183.11 1006.72 1185.25 1006.81 C 1185.26 1007.60 1185.29 1009.17 1185.31 1009.96 C 1182.04 1009.92 1178.78 1009.91 1175.52 1009.91 C 1175.33 1008.53 1175.14 1007.16 1174.96 1005.80 C 1171.73 1007.69 1168.55 1009.93 1164.81 1010.63 C 1160.48 1011.34 1155.59 1010.82 1152.23 1007.76 C 1147.04 1003.11 1147.80 993.43 1154.03 990.01 C 1160.54 986.25 1168.37 988.09 1175.29 989.50 C 1175.13 985.14 1176.38 979.59 1172.54 976.44 C 1168.18 973.15 1162.25 974.18 1157.31 975.30 C 1156.94 977.39 1156.63 979.49 1156.33 981.61 C 1154.86 981.59 1153.40 981.73 1152.00 982.10 C 1151.47 979.89 1150.56 977.20 1152.39 975.34 M 1155.77 992.80 C 1151.05 995.65 1151.02 1003.45 1155.90 1006.16 C 1162.35 1009.76 1171.11 1006.78 1175.09 1000.84 C 1175.71 998.05 1175.25 995.16 1175.01 992.36 C 1168.75 991.20 1161.53 988.91 1155.77 992.80 Z" />
</g>
<g id="#030303ff">
<path fill="#030303" opacity="1.00" d=" M 161.44 42.44 C 168.32 35.91 180.95 36.52 186.66 44.31 C 189.89 48.20 190.42 53.42 190.35 58.28 C 181.23 58.47 172.10 58.34 162.98 58.32 C 161.53 58.52 159.73 57.98 158.58 59.10 C 158.37 65.86 163.08 72.67 169.82 74.12 C 176.44 75.74 183.29 73.91 188.97 70.37 C 188.73 71.67 188.51 72.98 188.28 74.29 C 180.56 78.81 170.12 79.77 162.53 74.49 C 152.57 67.23 152.50 50.55 161.44 42.44 M 162.32 46.32 C 159.93 48.84 159.09 52.28 158.67 55.63 C 168.11 55.62 177.56 55.68 187.01 55.58 C 186.31 51.44 185.15 47.02 181.82 44.18 C 176.07 39.76 166.88 40.55 162.32 46.32 Z" />
<path fill="#030303" opacity="1.00" d=" M 1254.77 942.80 C 1258.65 942.68 1262.53 942.68 1266.41 942.76 C 1266.61 964.02 1266.51 985.28 1266.45 1006.54 C 1268.59 1006.64 1270.74 1006.74 1272.90 1006.86 C 1272.97 1007.62 1273.11 1009.14 1273.18 1009.90 C 1269.86 1009.93 1266.56 1009.95 1263.26 1009.95 C 1263.11 1008.27 1262.99 1006.61 1262.87 1004.96 C 1259.31 1007.60 1255.54 1010.52 1250.93 1010.80 C 1245.09 1011.57 1238.96 1009.37 1235.10 1004.90 C 1229.97 999.14 1229.02 990.54 1231.42 983.40 C 1233.92 976.11 1241.22 970.76 1248.99 970.93 C 1254.15 970.58 1258.80 973.14 1263.02 975.81 C 1263.12 965.79 1263.23 955.77 1262.96 945.76 C 1260.33 945.69 1257.72 945.65 1255.11 945.62 C 1255.03 944.92 1254.86 943.51 1254.77 942.80 M 1245.38 974.69 C 1232.37 977.97 1230.18 997.95 1240.77 1005.26 C 1247.79 1009.80 1257.96 1007.36 1262.71 1000.66 C 1263.56 995.48 1262.96 990.18 1263.14 984.96 C 1262.90 982.78 1263.61 979.85 1261.45 978.48 C 1257.05 974.78 1250.94 973.54 1245.38 974.69 Z" />
<path fill="#030303" opacity="1.00" d=" M 532.73 948.74 C 537.13 948.61 541.53 948.61 545.93 948.71 C 552.69 964.20 559.67 979.61 566.59 995.03 C 573.90 979.92 580.20 964.33 587.45 949.20 C 591.63 947.99 596.10 948.84 600.40 948.73 C 600.39 949.59 600.37 951.30 600.36 952.16 C 597.51 952.21 594.68 952.24 591.84 952.28 C 592.29 970.33 593.30 988.36 593.58 1006.42 C 596.53 1006.48 599.47 1006.54 602.42 1006.63 C 602.41 1007.52 602.38 1009.29 602.36 1010.17 C 595.64 1010.19 588.91 1010.41 582.20 1009.97 C 582.21 1008.80 582.24 1007.64 582.27 1006.49 C 584.85 1006.46 587.43 1006.42 590.02 1006.35 C 589.50 989.80 588.91 973.25 588.21 956.71 C 580.86 971.49 574.37 986.71 567.61 1001.78 C 567.09 1001.75 566.05 1001.70 565.53 1001.67 C 558.83 986.61 552.22 971.49 545.12 956.62 C 544.21 973.23 543.61 989.88 543.26 1006.52 C 545.84 1006.53 548.42 1006.56 551.01 1006.63 C 550.99 1007.51 550.93 1009.28 550.90 1010.17 C 544.14 1010.23 537.37 1010.29 530.61 1010.12 C 530.85 1008.91 530.94 1007.70 530.91 1006.50 C 533.75 1006.48 536.61 1006.40 539.46 1006.16 C 539.58 988.19 541.19 970.26 541.28 952.29 C 538.43 952.24 535.60 952.20 532.76 952.14 C 532.76 951.29 532.74 949.59 532.73 948.74 Z" />
<path fill="#030303" opacity="1.00" d=" M 906.12 948.76 C 912.38 948.57 918.65 948.59 924.91 948.76 C 924.91 949.60 924.91 951.28 924.90 952.13 C 922.36 952.17 919.82 952.22 917.29 952.28 C 923.52 969.64 930.48 986.74 936.59 1004.14 C 940.76 995.96 943.02 987.00 946.64 978.59 C 949.84 969.86 953.27 961.22 956.27 952.43 C 953.62 952.25 950.98 952.09 948.35 951.89 C 948.36 951.14 948.38 949.66 948.39 948.92 C 954.65 948.46 960.94 948.61 967.22 948.74 C 967.21 949.58 967.18 951.25 967.17 952.09 C 964.89 952.18 962.62 952.29 960.35 952.40 C 952.96 971.95 945.73 991.58 937.91 1010.96 C 937.29 1010.88 936.03 1010.72 935.40 1010.65 C 927.72 991.28 920.55 971.71 912.79 952.38 C 910.57 952.26 908.35 952.14 906.15 952.02 C 906.14 951.20 906.12 949.57 906.12 948.76 Z" />
<path fill="#030303" opacity="1.00" d=" M 981.33 952.10 C 984.18 950.30 987.80 953.86 986.01 956.77 C 985.49 959.07 982.53 959.08 980.82 958.22 C 979.40 956.49 979.08 953.26 981.33 952.10 Z" />
<path fill="#030303" opacity="1.00" d=" M 849.47 973.50 C 855.61 969.65 864.67 969.91 870.22 974.74 C 872.41 976.31 871.58 979.18 871.57 981.46 C 870.06 981.55 868.55 981.66 867.06 981.78 C 866.66 979.68 866.44 977.57 866.22 975.46 C 861.56 974.19 856.21 973.30 851.80 975.78 C 848.47 977.52 847.35 983.04 850.84 985.21 C 856.56 988.91 863.97 988.53 869.65 992.34 C 875.03 995.77 874.64 1004.96 869.16 1008.13 C 862.29 1012.39 852.52 1011.81 846.11 1006.90 C 843.56 1005.19 843.87 1001.98 844.29 999.36 C 845.77 999.30 847.26 999.22 848.75 999.12 C 849.04 1001.30 849.29 1003.49 849.50 1005.70 C 854.95 1007.78 861.46 1008.89 866.75 1005.78 C 870.52 1003.84 871.06 997.90 867.53 995.47 C 861.85 991.62 854.36 992.09 848.64 988.35 C 843.58 984.90 844.27 976.49 849.47 973.50 Z" />
<path fill="#030303" opacity="1.00" d=" M 1060.30 977.31 C 1066.52 969.33 1079.99 968.58 1086.71 976.30 C 1090.59 980.20 1090.92 985.98 1091.27 991.16 C 1080.52 991.52 1069.76 991.09 1059.01 991.38 C 1059.56 997.47 1062.41 1004.17 1068.63 1006.31 C 1075.53 1009.13 1083.00 1006.81 1089.41 1003.80 C 1089.39 1004.61 1089.35 1006.23 1089.32 1007.04 C 1081.84 1011.57 1071.75 1012.58 1064.12 1007.89 C 1054.17 1001.52 1053.36 986.18 1060.30 977.31 M 1064.12 978.11 C 1061.22 980.86 1059.97 984.75 1059.03 988.52 C 1068.66 988.58 1078.29 988.59 1087.93 988.51 C 1087.17 983.27 1084.95 977.51 1079.74 975.29 C 1074.58 973.44 1068.04 973.91 1064.12 978.11 Z" />
<path fill="#030303" opacity="1.00" d=" M 1097.22 972.11 C 1102.74 971.73 1108.29 971.76 1113.83 972.09 C 1113.81 972.73 1113.78 974.00 1113.77 974.64 C 1111.70 974.87 1109.65 975.10 1107.61 975.35 C 1111.54 984.77 1115.28 994.30 1119.93 1003.40 C 1124.14 994.07 1128.47 984.80 1132.27 975.29 C 1130.16 975.09 1128.07 974.90 1125.98 974.73 C 1125.94 974.03 1125.86 972.64 1125.82 971.95 C 1131.21 971.83 1136.60 971.78 1141.99 972.03 C 1141.94 972.68 1141.86 974.00 1141.82 974.65 C 1139.97 974.89 1138.13 975.13 1136.30 975.38 C 1131.55 985.33 1127.10 995.41 1122.43 1005.39 C 1119.37 1012.09 1116.80 1019.26 1111.77 1024.80 C 1109.40 1027.55 1105.19 1028.69 1101.89 1027.05 C 1099.76 1025.89 1100.26 1023.24 1100.25 1021.25 C 1103.28 1020.23 1105.54 1022.11 1107.41 1024.29 C 1113.01 1020.59 1115.35 1013.93 1117.59 1007.93 C 1113.65 996.84 1107.77 986.47 1103.44 975.50 C 1101.39 975.18 1099.34 974.89 1097.30 974.60 C 1097.28 973.98 1097.24 972.73 1097.22 972.11 Z" />
</g>
<g id="#fefefeff">
</g>
<g id="#000000ff">
<path fill="#000000" opacity="1.00" d=" M 566.12 126.13 C 570.28 122.26 576.18 125.31 581.09 125.45 C 578.07 143.19 574.35 160.80 570.78 178.44 C 568.00 195.18 563.88 211.66 561.11 228.40 C 556.71 249.04 553.17 269.84 548.68 290.45 C 546.95 299.72 545.34 309.02 543.29 318.24 C 540.06 333.19 537.67 348.32 534.40 363.27 C 531.83 374.60 530.25 386.12 527.66 397.45 C 525.16 408.65 523.57 420.02 521.06 431.22 C 519.19 440.82 516.85 450.34 515.51 460.04 C 502.19 460.32 488.83 460.56 475.53 459.92 C 465.89 420.07 456.14 380.25 446.33 340.45 C 443.60 327.75 439.78 315.32 437.16 302.59 C 429.86 273.61 423.06 244.50 415.69 215.53 C 414.42 209.90 413.29 204.22 411.51 198.72 C 408.86 205.59 407.71 212.90 405.95 220.02 C 386.12 300.05 366.87 380.21 346.98 460.23 C 333.47 460.12 319.94 460.59 306.44 459.98 C 304.35 449.44 302.10 438.93 299.87 428.42 C 297.50 413.87 293.90 399.55 291.17 385.07 C 289.03 372.55 286.00 360.21 283.58 347.74 C 281.24 333.55 277.56 319.63 275.27 305.43 C 270.17 282.11 265.90 258.62 260.87 235.29 C 258.01 218.74 253.90 202.45 251.05 185.90 C 247.11 167.68 243.71 149.36 239.96 131.10 C 252.46 131.05 264.96 130.83 277.45 131.19 C 285.23 171.70 293.39 212.13 301.17 252.63 C 308.06 286.24 314.14 319.99 321.14 353.58 C 323.26 366.48 326.05 379.26 328.76 392.05 C 331.24 379.88 334.69 367.94 337.53 355.85 C 339.53 346.05 342.40 336.47 344.61 326.72 C 347.27 314.32 350.91 302.16 353.58 289.76 C 355.61 280.93 357.99 272.19 360.14 263.40 C 362.80 250.53 366.66 237.95 369.35 225.09 C 377.03 193.79 384.73 162.49 392.32 131.17 C 405.37 130.96 418.43 130.85 431.47 131.23 C 441.45 172.25 451.26 213.31 461.45 254.28 C 463.87 266.11 467.44 277.67 469.81 289.51 C 477.29 319.05 484.07 348.75 491.54 378.29 C 492.34 381.64 492.73 385.14 494.27 388.27 C 498.80 366.63 502.42 344.82 506.97 323.18 C 509.45 308.58 512.48 294.09 515.32 279.56 C 518.10 262.21 522.29 245.12 525.03 227.77 C 529.30 207.27 532.73 186.61 537.01 166.11 C 538.38 160.16 538.94 154.05 540.31 148.10 C 540.64 146.15 542.44 145.05 543.82 143.85 C 551.32 138.02 558.72 132.07 566.12 126.13 Z" />
<path fill="#000000" opacity="1.00" d=" M 61.69 142.72 C 87.35 127.05 119.04 123.69 148.25 128.94 C 166.50 132.97 184.39 139.13 200.84 148.05 C 200.76 154.06 200.92 160.07 200.84 166.07 C 201.06 171.03 196.74 174.36 194.08 178.03 C 179.25 169.78 163.45 163.20 146.91 159.26 C 131.56 155.94 115.47 155.66 100.15 159.28 C 85.87 163.10 71.75 171.20 64.62 184.63 C 58.17 196.02 57.48 209.79 59.82 222.42 C 62.27 234.53 70.54 244.60 80.50 251.52 C 102.27 266.91 128.40 273.76 152.40 284.70 C 171.92 293.69 191.45 304.93 204.32 322.65 C 214.90 337.09 218.71 355.37 218.69 373.00 C 219.17 393.70 212.07 414.67 198.22 430.19 C 180.89 450.23 154.95 460.87 129.06 463.94 C 97.64 467.30 65.53 461.26 36.86 448.19 C 30.64 445.16 24.40 442.07 18.70 438.12 C 22.30 429.01 26.56 420.16 30.74 411.30 C 48.87 420.86 67.69 429.92 88.16 433.01 C 107.88 435.93 128.75 436.04 147.50 428.49 C 162.75 422.57 175.15 409.61 179.73 393.83 C 184.64 376.87 183.70 357.26 173.74 342.24 C 165.87 330.90 153.96 323.16 141.72 317.23 C 134.06 313.19 125.89 310.27 117.83 307.14 C 103.23 302.06 89.00 295.87 75.31 288.69 C 56.28 278.49 37.76 264.48 28.93 244.14 C 21.63 225.75 20.53 204.69 26.66 185.82 C 32.28 167.65 45.56 152.47 61.69 142.72 Z" />
<path fill="#000000" opacity="1.00" d=" M 620.79 131.09 C 679.10 131.01 737.42 130.94 795.73 131.13 C 795.71 141.02 795.74 150.91 795.72 160.80 C 767.15 160.89 738.57 160.81 710.00 160.84 C 692.10 160.98 674.19 160.55 656.30 161.07 C 656.33 199.32 656.33 237.57 656.30 275.82 C 684.54 275.93 712.77 275.83 741.01 275.86 C 753.01 276.00 765.03 275.56 777.03 276.11 C 776.98 278.91 777.68 281.92 776.61 284.59 C 773.93 288.50 770.25 291.58 767.14 295.14 C 763.97 298.36 761.36 302.17 757.79 304.97 C 754.24 305.66 750.58 305.27 747.00 305.34 C 716.77 305.31 686.54 305.33 656.31 305.33 C 656.30 346.95 656.36 388.57 656.28 430.19 C 703.71 430.63 751.15 430.24 798.59 430.39 C 798.52 440.27 798.52 450.15 798.59 460.04 C 775.07 460.54 751.53 460.11 728.00 460.25 C 692.26 460.22 656.52 460.33 620.79 460.20 C 620.68 350.50 620.68 240.79 620.79 131.09 Z" />
<path fill="#000000" opacity="1.00" d=" M 856.38 131.15 C 914.71 130.89 973.05 131.06 1031.38 131.06 C 1031.53 140.99 1031.60 150.92 1031.34 160.85 C 984.93 160.87 938.52 160.76 892.11 160.90 C 891.88 199.22 891.95 237.55 892.07 275.87 C 920.71 275.86 949.36 275.87 978.00 275.86 C 989.54 276.03 1001.10 275.49 1012.63 276.21 C 1012.55 278.95 1012.79 281.74 1012.28 284.45 C 1010.16 287.84 1007.03 290.44 1004.39 293.41 C 1001.07 296.76 998.11 300.45 994.82 303.82 C 993.41 305.56 991.03 305.29 989.05 305.37 C 956.73 305.26 924.41 305.40 892.10 305.30 C 891.87 346.96 892.00 388.63 892.03 430.29 C 939.39 430.48 986.76 430.34 1034.12 430.36 C 1034.48 440.29 1034.30 450.23 1034.24 460.17 C 999.49 460.37 964.74 460.19 930.00 460.25 C 905.46 460.13 880.92 460.51 856.39 460.07 C 856.50 350.43 856.52 240.79 856.38 131.15 Z" />
<path fill="#000000" opacity="1.00" d=" M 1081.92 132.01 C 1082.99 130.98 1084.52 131.07 1085.91 131.00 C 1150.29 131.11 1214.67 130.93 1279.04 131.08 C 1278.80 134.22 1280.13 138.16 1277.46 140.54 C 1271.78 146.18 1265.60 151.28 1259.94 156.94 C 1257.95 158.72 1256.01 161.24 1253.03 160.85 C 1229.91 160.91 1206.78 160.71 1183.66 160.93 C 1183.34 211.28 1183.61 261.65 1183.52 312.00 C 1183.57 361.35 1183.43 410.71 1183.59 460.06 C 1171.74 460.48 1159.88 460.21 1148.03 460.20 C 1147.84 360.44 1148.15 260.68 1147.88 160.92 C 1118.34 160.70 1088.80 160.96 1059.26 160.79 C 1059.36 158.08 1058.99 155.28 1059.72 152.64 C 1062.17 149.79 1065.24 147.55 1067.93 144.93 C 1072.65 140.69 1076.94 135.97 1081.92 132.01 Z" />
<path fill="#000000" opacity="1.00" d=" M 558.23 551.27 C 561.34 547.26 566.91 549.21 571.23 548.87 C 571.41 650.10 571.21 751.33 571.33 852.56 C 606.89 852.44 642.44 852.54 678.00 852.51 C 686.24 852.60 694.49 852.27 702.73 852.72 C 702.71 862.54 702.70 872.37 702.74 882.19 C 672.83 882.60 642.91 882.25 613.00 882.37 C 587.26 882.31 561.52 882.48 535.78 882.29 C 535.60 780.84 535.77 679.38 535.69 577.93 C 535.27 574.83 537.71 572.66 539.60 570.60 C 545.87 564.22 552.15 557.84 558.23 551.27 Z" />
<path fill="#000000" opacity="1.00" d=" M 774.53 549.54 C 777.97 548.02 782.05 549.08 785.74 548.96 C 785.75 660.05 785.72 771.13 785.76 882.22 C 773.89 882.49 762.01 882.42 750.14 882.26 C 750.18 780.49 750.12 678.73 750.17 576.96 C 749.95 574.05 752.61 572.28 754.29 570.31 C 761.14 563.49 767.52 556.18 774.53 549.54 Z" />
<path fill="#000000" opacity="1.00" d=" M 859.15 553.23 C 917.49 553.20 975.83 553.15 1034.17 553.25 C 1034.41 563.14 1034.38 573.04 1034.18 582.93 C 1008.13 583.52 982.06 583.02 956.00 583.18 C 935.61 583.19 915.21 583.18 894.82 583.19 C 894.61 621.51 894.66 659.83 894.79 698.15 C 934.93 698.29 975.08 698.16 1015.22 698.22 C 1015.09 701.68 1016.36 705.86 1013.52 708.58 C 1008.88 713.90 1003.81 718.84 999.22 724.20 C 997.76 725.69 996.41 727.91 994.01 727.65 C 960.93 727.77 927.85 727.54 894.77 727.75 C 894.63 779.24 894.73 830.72 894.72 882.20 C 882.84 882.52 870.94 882.41 859.05 882.26 C 858.63 831.51 858.99 780.75 858.87 730.00 C 858.87 692.00 858.87 654.00 858.87 616.00 C 859.04 595.08 858.51 574.14 859.15 553.23 Z" />
<path fill="#000000" opacity="1.00" d=" M 1078.79 553.21 C 1137.09 553.22 1195.39 553.14 1253.70 553.25 C 1253.67 563.14 1253.70 573.03 1253.67 582.92 C 1229.13 583.54 1204.56 583.01 1180.00 583.18 C 1158.10 583.21 1136.19 583.14 1114.29 583.21 C 1114.26 621.47 1114.25 659.73 1114.29 697.99 C 1154.49 698.51 1194.71 698.05 1234.91 698.22 C 1235.03 701.85 1235.99 706.19 1232.92 708.95 C 1227.02 715.00 1221.63 721.60 1215.49 727.40 C 1206.36 728.10 1197.15 727.45 1188.00 727.67 C 1163.42 727.77 1138.83 727.47 1114.26 727.82 C 1114.30 769.40 1114.22 810.99 1114.30 852.57 C 1161.66 852.49 1209.02 852.42 1256.37 852.61 C 1256.54 862.50 1256.53 872.40 1256.38 882.29 C 1197.17 882.42 1137.95 882.43 1078.74 882.29 C 1078.59 776.53 1078.74 670.76 1078.66 565.00 C 1078.63 561.07 1078.68 557.14 1078.79 553.21 Z" />
</g>
<g id="#010101ff">
<path fill="#010101" opacity="1.00" d=" M 726.61 942.79 C 729.99 942.71 733.37 942.71 736.75 942.82 C 736.81 954.60 736.58 966.39 736.86 978.18 C 741.22 974.64 746.03 970.64 752.02 970.93 C 757.52 970.42 762.99 974.59 763.48 980.19 C 764.05 988.95 763.29 997.76 763.83 1006.54 C 766.08 1006.69 768.34 1006.89 770.60 1007.15 C 770.63 1007.81 770.69 1009.13 770.72 1009.79 C 765.04 1010.03 759.36 1009.94 753.69 1009.91 C 753.70 1009.13 753.73 1007.58 753.74 1006.81 C 755.86 1006.72 757.98 1006.66 760.11 1006.60 C 760.33 999.39 760.34 992.18 760.20 984.98 C 760.08 981.38 759.58 976.88 755.89 975.17 C 748.80 972.32 740.34 976.74 736.96 983.13 C 736.42 990.90 736.75 998.74 736.91 1006.53 C 739.14 1006.66 741.39 1006.83 743.63 1007.05 C 743.66 1007.74 743.73 1009.12 743.77 1009.81 C 738.09 1010.03 732.41 1009.98 726.74 1009.86 C 726.76 1009.12 726.80 1007.64 726.82 1006.90 C 728.93 1006.77 731.04 1006.67 733.17 1006.57 C 733.53 986.33 733.35 966.07 733.26 945.83 C 731.17 945.72 729.08 945.64 727.00 945.58 C 726.90 944.88 726.71 943.49 726.61 942.79 Z" />
<path fill="#010101" opacity="1.00" d=" M 700.93 962.12 C 701.77 961.26 702.73 960.53 703.68 959.78 C 703.88 963.80 703.92 967.82 704.08 971.84 C 708.28 971.81 712.48 971.88 716.68 972.13 C 716.67 972.78 716.66 974.09 716.65 974.75 C 712.47 974.80 708.30 974.91 704.13 975.14 C 703.69 983.10 703.86 991.08 703.90 999.05 C 704.10 1001.88 703.82 1005.94 707.19 1007.04 C 710.37 1007.86 713.59 1006.36 716.75 1005.96 C 716.40 1010.57 710.81 1011.22 707.19 1010.82 C 703.21 1010.66 700.72 1006.73 700.78 1003.04 C 700.58 993.79 700.82 984.54 700.72 975.29 C 698.43 975.12 696.14 974.91 693.86 974.76 C 693.82 974.09 693.73 972.74 693.69 972.07 C 696.03 971.94 698.38 971.83 700.73 971.74 C 700.73 968.53 700.49 965.30 700.93 962.12 Z" />
</g>
<g id="#050505ff">
<path fill="#050505" opacity="1.00" d=" M 1205.40 978.85 C 1208.36 975.59 1211.48 971.75 1216.08 970.99 C 1217.94 970.86 1220.65 970.97 1221.19 973.21 C 1221.37 974.46 1221.84 976.65 1220.35 977.26 C 1218.05 978.80 1215.85 976.20 1213.90 975.22 C 1210.54 977.51 1206.67 980.10 1205.62 984.28 C 1205.17 991.70 1205.64 999.15 1205.41 1006.59 C 1208.04 1006.65 1210.67 1006.71 1213.31 1006.80 C 1213.32 1007.58 1213.34 1009.14 1213.35 1009.92 C 1207.26 1010.01 1201.18 1010.02 1195.10 1009.86 C 1195.14 1009.12 1195.21 1007.64 1195.25 1006.90 C 1197.46 1006.78 1199.68 1006.67 1201.91 1006.59 C 1202.05 996.13 1202.04 985.68 1201.92 975.23 C 1199.66 975.05 1197.42 974.86 1195.19 974.71 C 1195.16 974.04 1195.10 972.68 1195.08 972.00 C 1198.50 971.89 1201.92 971.86 1205.36 971.88 C 1205.38 974.19 1205.40 976.52 1205.40 978.85 Z" />
<path fill="#050505" opacity="1.00" d=" M 974.20 972.04 C 977.78 971.87 981.38 971.84 984.98 971.88 C 985.12 983.46 984.86 995.05 985.09 1006.64 C 987.45 1006.67 989.83 1006.72 992.21 1006.79 C 992.22 1007.57 992.22 1009.13 992.22 1009.92 C 986.24 1009.98 980.25 1010.07 974.28 1009.77 C 974.30 1009.09 974.35 1007.72 974.37 1007.04 C 976.76 1006.82 979.17 1006.66 981.59 1006.51 C 981.50 996.11 981.51 985.72 981.59 975.32 C 979.13 975.11 976.67 974.89 974.22 974.69 C 974.22 974.03 974.20 972.71 974.20 972.04 Z" />
</g>
</svg>
