<?xml version="1.0" encoding="utf-8"?>
<!-- Generator: Adobe Illustrator 20.1.0, SVG Export Plug-In . SVG Version: 6.00 Build 0)  -->
<svg version="1.1" id="Layer_1" xmlns="http://www.w3.org/2000/svg" xmlns:xlink="http://www.w3.org/1999/xlink" x="0px" y="0px"
	 viewBox="0 0 1280 1033" style="enable-background:new 0 0 1280 1033;" xml:space="preserve">
<style type="text/css">
	.st0{fill:#FFFFFF;}
</style>
<g id="_x23_040404ff">
	<path class="st0" d="M102.3,10c3.3-0.2,6.7-0.2,10.1-0.2c0.3,11.8,0,23.5,0.1,35.3c4.8-3.7,10.1-8,16.6-7c5.4,0,9.8,4.7,9.9,10
		c0.5,8.6,0,17.1,0.2,25.7c2.2,0.1,4.5,0.3,6.7,0.5c0,0.7,0.1,2.2,0.1,2.9c-5.6,0.2-11.2,0.2-16.8,0c0-0.7,0-2.2,0.1-2.9
		c2.2-0.2,4.4-0.4,6.6-0.6c-0.1-7.9,0.1-15.8-0.1-23.7c0.1-3.2-1.6-6.6-4.7-7.8c-5.2-2.1-11,0.4-15,3.8c-1.5,1.4-3.5,2.9-3.4,5.2
		c-0.2,7.5,0.1,15-0.1,22.6c2.3,0.2,4.5,0.4,6.8,0.6c0,0.7,0.1,2.2,0.1,3c-5.6,0.2-11.2,0.2-16.8,0c0-0.8,0.1-2.3,0.2-3.1
		c2.1-0.1,4.2-0.3,6.3-0.4c0-20.3,0.2-40.6-0.1-60.9c-2.2-0.1-4.4-0.2-6.6-0.3C102.3,11.9,102.3,10.6,102.3,10z"/>
	<path class="st0" d="M671.3,978.9c3-3.3,6.1-7.2,10.8-7.9c1.8-0.1,4.6,0,5.1,2.2c0.1,1.3,0.7,3.4-0.8,4c-2.4,1.5-4.6-1.1-6.5-2.1
		c-3.3,2.4-7.1,5-8.4,9.1c-0.5,7.4,0,14.9-0.2,22.4c2.6,0,5.2,0.1,7.9,0.2c0,0.8,0,2.3,0.1,3.1c-6,0.1-12.1,0.1-18.1,0
		c0-0.8,0.1-2.2,0.1-3c2.2-0.1,4.5-0.2,6.7-0.3c0-10.5,0.1-20.9,0-31.4c-2.3-0.2-4.5-0.3-6.7-0.5c0-0.7-0.1-2.1-0.1-2.8
		c3.4-0.1,6.8-0.1,10.1-0.1C671.2,974.2,671.2,976.5,671.3,978.9z"/>
	<path class="st0" d="M783.7,974.6c4.3-3.7,10.6-4.2,16-3.3c4.8,0.8,9.6,4.4,9.7,9.6c0.3,8.5,0,17.1,0,25.6c2.1,0.1,4.3,0.2,6.4,0.3
		c0.1,0.8,0.2,2.3,0.2,3.1c-3.3,0-6.6,0-9.8,0c-0.1-1.6-0.3-3.1-0.4-4.7c-6.1,5.5-15.9,8.2-22.8,2.7c-3.6-2.7-3.9-7.8-3.1-11.9
		c0.9-4.1,4.8-6.6,8.6-7.6c5.8-1.5,11.8-0.2,17.5,1.4c0-4.8,0.9-11-3.7-14c-4.5-2.5-9.9-1.5-14.6-0.3c-0.3,2.2-0.7,4.4-1,6.5
		c-1.4-0.2-2.8-0.3-4.2-0.6C780.8,979.3,781.7,976.2,783.7,974.6 M786.6,992.7c-5.1,3-4.8,11.6,0.7,14c6.5,2.8,14.7-0.1,18.5-5.9
		c0.5-2.7,0.1-5.5,0-8.3C799.6,991.2,792.5,989,786.6,992.7z"/>
	<path class="st0" d="M1012.4,978.1c4.5-3.6,9.5-7.6,15.7-7.1c5.3-0.3,10.5,3.7,10.8,9.2c0.7,8.8,0,17.7,0.3,26.5
		c2.2,0.1,4.5,0.2,6.7,0.3c0,0.7,0.1,2.2,0.2,3c-5.7,0.1-11.5,0.2-17.2,0c0-0.8,0.1-2.3,0.1-3c2.3-0.1,4.5-0.2,6.8-0.3
		c-0.2-7.8,0.1-15.7-0.1-23.5c0-3.2-1.1-6.9-4.4-8.1c-7-2.5-14.5,1.8-18.5,7.5c-0.8,8-0.1,16.1-0.3,24.1c2.3,0.1,4.6,0.2,6.9,0.3
		c0,0.7,0.1,2.2,0.1,3c-5.7,0.2-11.5,0.2-17.2,0c0-0.8,0.1-2.3,0.1-3c2.2-0.1,4.5-0.2,6.7-0.3c0-10.5,0.1-20.9,0-31.4
		c-2.3-0.2-4.5-0.4-6.7-0.5c0-0.7,0-2.1-0.1-2.7c3.3-0.1,6.7-0.1,10.1-0.1C1012.2,974,1012.3,976,1012.4,978.1z"/>
</g>
<g id="_x23_020202ff">
	<path class="st0" d="M41.7,15.8c16.3,0,32.6-0.3,48.9,0.2c0,4.6-0.1,9.2,0,13.9c-1.2,0.1-2.4,0.2-3.6,0.4
		c-0.1-3.6-0.1-7.2-0.2-10.8c-6.2,0.1-12.3,0.1-18.5,0c-0.1,18.1,0,36.2,0,54.3c3,0,5.9,0.1,8.8,0.1c0,0.9,0,2.6,0,3.4
		c-7.3,0.1-14.6,0.2-21.9-0.1c0-0.8,0-2.5,0-3.3c3.1-0.1,6.3-0.2,9.4-0.2c-0.1-18.1,0-36.1,0-54.2c-6.4,0-12.9,0-19.3,0
		c-0.1,3.6-0.1,7.2-0.1,10.7c-0.9,0-2.6,0-3.5,0C41.5,25.3,41.5,20.6,41.7,15.8z"/>
	<path class="st0" d="M828,948c2.5-0.5,6.2-1.1,6.9,2.2c1.7,7.1-3.1,15.3-10.2,17.1c2.3-3.6,5.1-7,6.6-11c-1.3-1.4-2.9-2.6-3.8-4.4
		C827.6,950.6,827.8,949.3,828,948z"/>
	<path class="st0" d="M617.9,974.8c4.7-4.2,11.6-4.6,17.4-3.3c4.4,0.9,8.3,4.8,8.4,9.5c0.3,8.5-0.2,17,0.2,25.5
		c2.1,0.1,4.2,0.1,6.3,0.2c0,0.8,0,2.4,0.1,3.2c-3.3,0-6.5,0-9.8-0.1c-0.2-1.4-0.3-2.7-0.5-4.1c-3.5,2-7,4.5-11.2,4.9
		c-4,0.5-8.5-0.2-11.6-3c-5.2-4.7-4.4-14.3,1.8-17.8c6.5-3.8,14.3-1.9,21.3-0.5c-0.1-3.8,0.7-8.1-1.3-11.6
		c-3.2-4.4-9.5-4.2-14.3-3.2c-3.5,0.3-2.7,4.5-3.4,7c-1.6-0.1-3.2-0.1-4.8-0.1C616.4,979.4,615.8,976.5,617.9,974.8 M623.4,991.5
		c-5.9,1.5-8.4,9.7-3.7,13.8c6.3,5,16.1,1.8,20.4-4.4c0.3-2.7,1-6-0.5-8.3C634.5,990.8,628.7,989.8,623.4,991.5z"/>
	<path class="st0" d="M1152.4,975.3c4.6-4.7,12-5.1,18.1-3.7c4.4,1,8.1,4.8,8.2,9.4c0.3,8.5-0.2,17,0.2,25.5
		c2.1,0.1,4.2,0.1,6.4,0.2c0,0.8,0,2.4,0.1,3.2c-3.3,0-6.5-0.1-9.8-0.1c-0.2-1.4-0.4-2.8-0.6-4.1c-3.2,1.9-6.4,4.1-10.1,4.8
		c-4.3,0.7-9.2,0.2-12.6-2.9c-5.2-4.7-4.4-14.3,1.8-17.8c6.5-3.8,14.3-1.9,21.3-0.5c-0.2-4.4,1.1-9.9-2.8-13.1
		c-4.4-3.3-10.3-2.3-15.2-1.1c-0.4,2.1-0.7,4.2-1,6.3c-1.5,0-2.9,0.1-4.3,0.5C1151.5,979.9,1150.6,977.2,1152.4,975.3 M1155.8,992.8
		c-4.7,2.9-4.8,10.7,0.1,13.4c6.4,3.6,15.2,0.6,19.2-5.3c0.6-2.8,0.2-5.7-0.1-8.5C1168.8,991.2,1161.5,988.9,1155.8,992.8z"/>
</g>
<g id="_x23_030303ff">
	<path class="st0" d="M161.4,42.4c6.9-6.5,19.5-5.9,25.2,1.9c3.2,3.9,3.8,9.1,3.7,14c-9.1,0.2-18.3,0.1-27.4,0
		c-1.4,0.2-3.3-0.3-4.4,0.8c-0.2,6.8,4.5,13.6,11.2,15c6.6,1.6,13.5-0.2,19.1-3.8c-0.2,1.3-0.5,2.6-0.7,3.9
		c-7.7,4.5-18.2,5.5-25.8,0.2C152.6,67.2,152.5,50.5,161.4,42.4 M162.3,46.3c-2.4,2.5-3.2,6-3.7,9.3c9.4,0,18.9,0,28.3,0
		c-0.7-4.1-1.9-8.6-5.2-11.4C176.1,39.8,166.9,40.5,162.3,46.3z"/>
	<path class="st0" d="M1254.8,942.8c3.9-0.1,7.8-0.1,11.6,0c0.2,21.3,0.1,42.5,0,63.8c2.1,0.1,4.3,0.2,6.5,0.3
		c0.1,0.8,0.2,2.3,0.3,3c-3.3,0-6.6,0-9.9,0c-0.2-1.7-0.3-3.3-0.4-5c-3.6,2.6-7.3,5.6-11.9,5.8c-5.8,0.8-12-1.4-15.8-5.9
		c-5.1-5.8-6.1-14.4-3.7-21.5c2.5-7.3,9.8-12.6,17.6-12.5c5.2-0.3,9.8,2.2,14,4.9c0.1-10,0.2-20-0.1-30c-2.6-0.1-5.2-0.1-7.8-0.1
		C1255,944.9,1254.9,943.5,1254.8,942.8 M1245.4,974.7c-13,3.3-15.2,23.3-4.6,30.6c7,4.5,17.2,2.1,21.9-4.6
		c0.9-5.2,0.3-10.5,0.4-15.7c-0.2-2.2,0.5-5.1-1.7-6.5C1257.1,974.8,1250.9,973.5,1245.4,974.7z"/>
	<path class="st0" d="M532.7,948.7c4.4-0.1,8.8-0.1,13.2,0c6.8,15.5,13.7,30.9,20.7,46.3c7.3-15.1,13.6-30.7,20.9-45.8
		c4.2-1.2,8.6-0.4,13-0.5c0,0.9,0,2.6,0,3.4c-2.8,0.1-5.7,0.1-8.5,0.1c0.4,18,1.5,36.1,1.7,54.1c3,0.1,5.9,0.1,8.8,0.2
		c0,0.9,0,2.7-0.1,3.5c-6.7,0-13.5,0.2-20.2-0.2c0-1.2,0-2.3,0.1-3.5c2.6,0,5.2-0.1,7.8-0.1c-0.5-16.5-1.1-33.1-1.8-49.6
		c-7.4,14.8-13.8,30-20.6,45.1c-0.5,0-1.6-0.1-2.1-0.1c-6.7-15.1-13.3-30.2-20.4-45c-0.9,16.6-1.5,33.3-1.9,49.9
		c2.6,0,5.2,0,7.8,0.1c0,0.9-0.1,2.7-0.1,3.5c-6.8,0.1-13.5,0.1-20.3,0c0.2-1.2,0.3-2.4,0.3-3.6c2.8,0,5.7-0.1,8.6-0.3
		c0.1-18,1.7-35.9,1.8-53.9c-2.9,0-5.7-0.1-8.5-0.1C532.8,951.3,532.7,949.6,532.7,948.7z"/>
	<path class="st0" d="M906.1,948.8c6.3-0.2,12.5-0.2,18.8,0c0,0.8,0,2.5,0,3.4c-2.5,0-5.1,0.1-7.6,0.2c6.2,17.4,13.2,34.5,19.3,51.9
		c4.2-8.2,6.4-17.1,10-25.5c3.2-8.7,6.6-17.4,9.6-26.2c-2.7-0.2-5.3-0.3-7.9-0.5c0-0.8,0-2.2,0-3c6.3-0.5,12.5-0.3,18.8-0.2
		c0,0.8,0,2.5,0,3.4c-2.3,0.1-4.5,0.2-6.8,0.3c-7.4,19.5-14.6,39.2-22.4,58.6c-0.6-0.1-1.9-0.2-2.5-0.3
		c-7.7-19.4-14.9-38.9-22.6-58.3c-2.2-0.1-4.4-0.2-6.6-0.4C906.1,951.2,906.1,949.6,906.1,948.8z"/>
	<path class="st0" d="M981.3,952.1c2.8-1.8,6.5,1.8,4.7,4.7c-0.5,2.3-3.5,2.3-5.2,1.4C979.4,956.5,979.1,953.3,981.3,952.1z"/>
	<path class="st0" d="M849.5,973.5c6.1-3.8,15.2-3.6,20.8,1.2c2.2,1.6,1.4,4.4,1.4,6.7c-1.5,0.1-3,0.2-4.5,0.3
		c-0.4-2.1-0.6-4.2-0.8-6.3c-4.7-1.3-10-2.2-14.4,0.3c-3.3,1.7-4.5,7.3-1,9.4c5.7,3.7,13.1,3.3,18.8,7.1c5.4,3.4,5,12.6-0.5,15.8
		c-6.9,4.3-16.6,3.7-23-1.2c-2.5-1.7-2.2-4.9-1.8-7.5c1.5-0.1,3-0.1,4.5-0.2c0.3,2.2,0.5,4.4,0.8,6.6c5.5,2.1,12,3.2,17.3,0.1
		c3.8-1.9,4.3-7.9,0.8-10.3c-5.7-3.8-13.2-3.4-18.9-7.1C843.6,984.9,844.3,976.5,849.5,973.5z"/>
	<path class="st0" d="M1060.3,977.3c6.2-8,19.7-8.7,26.4-1c3.9,3.9,4.2,9.7,4.6,14.9c-10.8,0.4-21.5-0.1-32.3,0.2
		c0.6,6.1,3.4,12.8,9.6,14.9c6.9,2.8,14.4,0.5,20.8-2.5c0,0.8-0.1,2.4-0.1,3.2c-7.5,4.5-17.6,5.5-25.2,0.9
		C1054.2,1001.5,1053.4,986.2,1060.3,977.3 M1064.1,978.1c-2.9,2.8-4.2,6.6-5.1,10.4c9.6,0.1,19.3,0.1,28.9,0
		c-0.8-5.2-3-11-8.2-13.2C1074.6,973.4,1068,973.9,1064.1,978.1z"/>
	<path class="st0" d="M1097.2,972.1c5.5-0.4,11.1-0.3,16.6,0c0,0.6,0,1.9-0.1,2.5c-2.1,0.2-4.1,0.5-6.2,0.7
		c3.9,9.4,7.7,19,12.3,28.1c4.2-9.3,8.5-18.6,12.3-28.1c-2.1-0.2-4.2-0.4-6.3-0.6c0-0.7-0.1-2.1-0.2-2.8c5.4-0.1,10.8-0.2,16.2,0.1
		c-0.1,0.6-0.1,2-0.2,2.6c-1.8,0.2-3.7,0.5-5.5,0.7c-4.8,10-9.2,20-13.9,30c-3.1,6.7-5.6,13.9-10.7,19.4c-2.4,2.8-6.6,3.9-9.9,2.3
		c-2.1-1.2-1.6-3.8-1.6-5.8c3-1,5.3,0.9,7.2,3c5.6-3.7,7.9-10.4,10.2-16.4c-3.9-11.1-9.8-21.5-14.2-32.4c-2-0.3-4.1-0.6-6.1-0.9
		C1097.3,974,1097.2,972.7,1097.2,972.1z"/>
</g>
<g id="_x23_fefefeff">
</g>
<g id="_x23_000000ff">
	<path class="st0" d="M566.1,126.1c4.2-3.9,10.1-0.8,15-0.7c-3,17.7-6.7,35.4-10.3,53c-2.8,16.7-6.9,33.2-9.7,50
		c-4.4,20.6-7.9,41.4-12.4,62.1c-1.7,9.3-3.3,18.6-5.4,27.8c-3.2,15-5.6,30.1-8.9,45c-2.6,11.3-4.2,22.9-6.7,34.2
		c-2.5,11.2-4.1,22.6-6.6,33.8c-1.9,9.6-4.2,19.1-5.5,28.8c-13.3,0.3-26.7,0.5-40-0.1c-9.6-39.9-19.4-79.7-29.2-119.5
		c-2.7-12.7-6.5-25.1-9.2-37.9c-7.3-29-14.1-58.1-21.5-87.1c-1.3-5.6-2.4-11.3-4.2-16.8c-2.7,6.9-3.8,14.2-5.6,21.3
		c-19.8,80-39.1,160.2-59,240.2c-13.5-0.1-27,0.4-40.5-0.3c-2.1-10.5-4.3-21.1-6.6-31.6c-2.4-14.6-6-28.9-8.7-43.4
		c-2.1-12.5-5.2-24.9-7.6-37.3c-2.3-14.2-6-28.1-8.3-42.3c-5.1-23.3-9.4-46.8-14.4-70.1c-2.9-16.5-7-32.8-9.8-49.4
		c-3.9-18.2-7.3-36.5-11.1-54.8c12.5-0.1,25-0.3,37.5,0.1c7.8,40.5,15.9,80.9,23.7,121.4c6.9,33.6,13,67.4,20,100.9
		c2.1,12.9,4.9,25.7,7.6,38.5c2.5-12.2,5.9-24.1,8.8-36.2c2-9.8,4.9-19.4,7.1-29.1c2.7-12.4,6.3-24.6,9-37c2-8.8,4.4-17.6,6.6-26.4
		c2.7-12.9,6.5-25.5,9.2-38.3c7.7-31.3,15.4-62.6,23-93.9c13-0.2,26.1-0.3,39.1,0.1c10,41,19.8,82.1,30,123.1
		c2.4,11.8,6,23.4,8.4,35.2c7.5,29.5,14.3,59.2,21.7,88.8c0.8,3.4,1.2,6.9,2.7,10c4.5-21.6,8.2-43.4,12.7-65.1
		c2.5-14.6,5.5-29.1,8.4-43.6c2.8-17.4,7-34.4,9.7-51.8c4.3-20.5,7.7-41.2,12-61.7c1.4-5.9,1.9-12.1,3.3-18c0.3-2,2.1-3.1,3.5-4.3
		C551.3,138,558.7,132.1,566.1,126.1z"/>
	<path class="st0" d="M61.7,142.7c25.7-15.7,57.4-19,86.6-13.8c18.3,4,36.1,10.2,52.6,19.1c-0.1,6,0.1,12,0,18c0.2,5-4.1,8.3-6.8,12
		c-14.8-8.3-30.6-14.8-47.2-18.8c-15.4-3.3-31.4-3.6-46.8,0c-14.3,3.8-28.4,11.9-35.5,25.4c-6.5,11.4-7.1,25.2-4.8,37.8
		c2.5,12.1,10.7,22.2,20.7,29.1c21.8,15.4,47.9,22.2,71.9,33.2c19.5,9,39.1,20.2,51.9,37.9c10.6,14.4,14.4,32.7,14.4,50.4
		c0.5,20.7-6.6,41.7-20.5,57.2c-17.3,20-43.3,30.7-69.2,33.8c-31.4,3.4-63.5-2.7-92.2-15.8c-6.2-3-12.5-6.1-18.2-10.1
		c3.6-9.1,7.9-18,12-26.8c18.1,9.6,37,18.6,57.4,21.7c19.7,2.9,40.6,3,59.3-4.5c15.3-5.9,27.6-18.9,32.2-34.7c4.9-17,4-36.6-6-51.6
		c-7.9-11.3-19.8-19.1-32-25c-7.7-4-15.8-7-23.9-10.1c-14.6-5.1-28.8-11.3-42.5-18.5c-19-10.2-37.5-24.2-46.4-44.6
		c-7.3-18.4-8.4-39.4-2.3-58.3C32.3,167.6,45.6,152.5,61.7,142.7z"/>
	<path class="st0" d="M620.8,131.1c58.3-0.1,116.6-0.1,174.9,0c0,9.9,0,19.8,0,29.7c-28.6,0.1-57.1,0-85.7,0
		c-17.9,0.1-35.8-0.3-53.7,0.2c0,38.3,0,76.5,0,114.8c28.2,0.1,56.5,0,84.7,0c12,0.1,24-0.3,36,0.3c-0.1,2.8,0.6,5.8-0.4,8.5
		c-2.7,3.9-6.4,7-9.5,10.6c-3.2,3.2-5.8,7-9.4,9.8c-3.5,0.7-7.2,0.3-10.8,0.4c-30.2,0-60.5,0-90.7,0c0,41.6,0,83.2,0,124.9
		c47.4,0.4,94.9,0,142.3,0.2c-0.1,9.9-0.1,19.8,0,29.6c-23.5,0.5-47.1,0.1-70.6,0.2c-35.7,0-71.5,0.1-107.2,0
		C620.7,350.5,620.7,240.8,620.8,131.1z"/>
	<path class="st0" d="M856.4,131.1c58.3-0.3,116.7-0.1,175-0.1c0.2,9.9,0.2,19.9,0,29.8c-46.4,0-92.8-0.1-139.2,0
		c-0.2,38.3-0.2,76.7,0,115c28.6,0,57.3,0,85.9,0c11.5,0.2,23.1-0.4,34.6,0.4c-0.1,2.7,0.2,5.5-0.3,8.2c-2.1,3.4-5.3,6-7.9,9
		c-3.3,3.4-6.3,7-9.6,10.4c-1.4,1.7-3.8,1.5-5.8,1.5c-32.3-0.1-64.6,0-97-0.1c-0.2,41.7-0.1,83.3-0.1,125c47.4,0.2,94.7,0,142.1,0.1
		c0.4,9.9,0.2,19.9,0.1,29.8c-34.8,0.2-69.5,0-104.2,0.1c-24.5-0.1-49.1,0.3-73.6-0.2C856.5,350.4,856.5,240.8,856.4,131.1z"/>
	<path class="st0" d="M1081.9,132c1.1-1,2.6-0.9,4-1c64.4,0.1,128.8-0.1,193.1,0.1c-0.2,3.1,1.1,7.1-1.6,9.5
		c-5.7,5.6-11.9,10.7-17.5,16.4c-2,1.8-3.9,4.3-6.9,3.9c-23.1,0.1-46.3-0.1-69.4,0.1c-0.3,50.4-0.1,100.7-0.1,151.1
		c0,49.4-0.1,98.7,0.1,148.1c-11.8,0.4-23.7,0.1-35.6,0.1c-0.2-99.8,0.1-199.5-0.2-299.3c-29.5-0.2-59.1,0-88.6-0.1
		c0.1-2.7-0.3-5.5,0.5-8.1c2.5-2.9,5.5-5.1,8.2-7.7C1072.7,140.7,1076.9,136,1081.9,132z"/>
	<path class="st0" d="M558.2,551.3c3.1-4,8.7-2.1,13-2.4c0.2,101.2,0,202.5,0.1,303.7c35.6-0.1,71.1,0,106.7,0
		c8.2,0.1,16.5-0.2,24.7,0.2c0,9.8,0,19.7,0,29.5c-29.9,0.4-59.8,0.1-89.7,0.2c-25.7-0.1-51.5,0.1-77.2-0.1
		c-0.2-101.4,0-202.9-0.1-304.4c-0.4-3.1,2-5.3,3.9-7.3C545.9,564.2,552.2,557.8,558.2,551.3z"/>
	<path class="st0" d="M774.5,549.5c3.4-1.5,7.5-0.5,11.2-0.6c0,111.1,0,222.2,0,333.3c-11.9,0.3-23.8,0.2-35.6,0
		c0-101.8,0-203.5,0-305.3c-0.2-2.9,2.4-4.7,4.1-6.7C761.1,563.5,767.5,556.2,774.5,549.5z"/>
	<path class="st0" d="M859.2,553.2c58.3,0,116.7-0.1,175,0c0.2,9.9,0.2,19.8,0,29.7c-26.1,0.6-52.1,0.1-78.2,0.3
		c-20.4,0-40.8,0-61.2,0c-0.2,38.3-0.2,76.6,0,115c40.1,0.1,80.3,0,120.4,0.1c-0.1,3.5,1.1,7.6-1.7,10.4
		c-4.6,5.3-9.7,10.3-14.3,15.6c-1.5,1.5-2.8,3.7-5.2,3.5c-33.1,0.1-66.2-0.1-99.2,0.1c-0.1,51.5,0,103-0.1,154.5
		c-11.9,0.3-23.8,0.2-35.7,0.1c-0.4-50.8-0.1-101.5-0.2-152.3c0-38,0-76,0-114C859,595.1,858.5,574.1,859.2,553.2z"/>
	<path class="st0" d="M1078.8,553.2c58.3,0,116.6-0.1,174.9,0c0,9.9,0,19.8,0,29.7c-24.5,0.6-49.1,0.1-73.7,0.3
		c-21.9,0-43.8,0-65.7,0c0,38.3,0,76.5,0,114.8c40.2,0.5,80.4,0.1,120.6,0.2c0.1,3.6,1.1,8-2,10.7c-5.9,6-11.3,12.6-17.4,18.5
		c-9.1,0.7-18.3,0-27.5,0.3c-24.6,0.1-49.2-0.2-73.7,0.2c0,41.6,0,83.2,0,124.8c47.4-0.1,94.7-0.2,142.1,0c0.2,9.9,0.2,19.8,0,29.7
		c-59.2,0.1-118.4,0.1-177.6,0c-0.2-105.8,0-211.5-0.1-317.3C1078.6,561.1,1078.7,557.1,1078.8,553.2z"/>
</g>
<g id="_x23_010101ff">
	<path class="st0" d="M726.6,942.8c3.4-0.1,6.8-0.1,10.1,0c0.1,11.8-0.2,23.6,0.1,35.4c4.4-3.5,9.2-7.5,15.2-7.3
		c5.5-0.5,11,3.7,11.5,9.3c0.6,8.8-0.2,17.6,0.4,26.3c2.3,0.2,4.5,0.4,6.8,0.6c0,0.7,0.1,2,0.1,2.6c-5.7,0.2-11.4,0.2-17,0.1
		c0-0.8,0-2.3,0-3.1c2.1-0.1,4.2-0.2,6.4-0.2c0.2-7.2,0.2-14.4,0.1-21.6c-0.1-3.6-0.6-8.1-4.3-9.8c-7.1-2.8-15.5,1.6-18.9,8
		c-0.5,7.8-0.2,15.6-0.1,23.4c2.2,0.1,4.5,0.3,6.7,0.5c0,0.7,0.1,2.1,0.1,2.8c-5.7,0.2-11.4,0.2-17,0c0-0.7,0.1-2.2,0.1-3
		c2.1-0.1,4.2-0.2,6.3-0.3c0.4-20.2,0.2-40.5,0.1-60.7c-2.1-0.1-4.2-0.2-6.3-0.3C726.9,944.9,726.7,943.5,726.6,942.8z"/>
	<path class="st0" d="M700.9,962.1c0.8-0.9,1.8-1.6,2.8-2.3c0.2,4,0.2,8,0.4,12.1c4.2,0,8.4,0,12.6,0.3c0,0.7,0,2,0,2.6
		c-4.2,0-8.4,0.2-12.5,0.4c-0.4,8-0.3,15.9-0.2,23.9c0.2,2.8-0.1,6.9,3.3,8c3.2,0.8,6.4-0.7,9.6-1.1c-0.3,4.6-5.9,5.3-9.6,4.9
		c-4-0.2-6.5-4.1-6.4-7.8c-0.2-9.3,0-18.5-0.1-27.8c-2.3-0.2-4.6-0.4-6.9-0.5c0-0.7-0.1-2-0.2-2.7c2.3-0.1,4.7-0.2,7-0.3
		C700.7,968.5,700.5,965.3,700.9,962.1z"/>
</g>
<g id="_x23_050505ff">
	<path class="st0" d="M1205.4,978.8c3-3.3,6.1-7.1,10.7-7.9c1.9-0.1,4.6,0,5.1,2.2c0.2,1.3,0.7,3.4-0.8,4c-2.3,1.5-4.5-1.1-6.4-2
		c-3.4,2.3-7.2,4.9-8.3,9.1c-0.4,7.4,0,14.9-0.2,22.3c2.6,0.1,5.3,0.1,7.9,0.2c0,0.8,0,2.3,0,3.1c-6.1,0.1-12.2,0.1-18.3-0.1
		c0-0.7,0.1-2.2,0.2-3c2.2-0.1,4.4-0.2,6.7-0.3c0.1-10.5,0.1-20.9,0-31.4c-2.3-0.2-4.5-0.4-6.7-0.5c0-0.7-0.1-2-0.1-2.7
		c3.4-0.1,6.8-0.1,10.3-0.1C1205.4,974.2,1205.4,976.5,1205.4,978.8z"/>
	<path class="st0" d="M974.2,972c3.6-0.2,7.2-0.2,10.8-0.2c0.1,11.6-0.1,23.2,0.1,34.8c2.4,0,4.7,0.1,7.1,0.1c0,0.8,0,2.3,0,3.1
		c-6,0.1-12,0.2-17.9-0.1c0-0.7,0.1-2.1,0.1-2.7c2.4-0.2,4.8-0.4,7.2-0.5c-0.1-10.4-0.1-20.8,0-31.2c-2.5-0.2-4.9-0.4-7.4-0.6
		C974.2,974,974.2,972.7,974.2,972z"/>
</g>
</svg>
